<svg version="1" xmlns="http://www.w3.org/2000/svg" width="213.333" height="213.333" viewBox="0 0 160.000000 160.000000"><path d="M73 17.1C60.5 18.9 47.5 26 39.4 35.6c-4.2 4.9-5 5.4-8.8 5.4-5.3 0-13.4 3.8-16.8 7.8-3.9 4.7-5.1 9.4-4.6 18.6.3 6.8 1 9.4 4 15.6 3.5 7.1 3.6 8 3.6 17-.1 5.2.4 11.2 1 13.3 1 3.6.6 5.3-5.8 23.5-3.7 10.8-7.1 20.5-7.5 21.4-.7 1.7.4 1.8 14.2 1.8h15l1.8-10c.9-5.5 2-10 2.4-10 .3 0 3.5.9 6.9 2 3.5 1.1 8.7 2 11.5 1.9l5.2-.1-3.7-1c-5.1-1.3-7.2-6.8-6.6-16.9.3-6.3.7-7.4 2.8-8.8 1.4-.9 5.4-4.2 9-7.5 5.6-5.1 6.8-6.8 8.7-12.5 2.5-7.6 2.9-13.8 1-18.4-.8-1.8-1.2-4.9-.9-7 .3-2.4-.2-4.6-1.3-6.3-1.5-2.3-2.2-2.6-5.7-2.1-2.8.4-4.1.1-4.5-.9-.3-.9-2-1.4-5.2-1.3-5 .1-4.7.4 1.3 1.4l3.9.6-3.4 3.5c-1.9 2-6.5 5.8-10.2 8.6-3.7 2.8-6.6 5.2-6.3 5.5.2.2 5.2-3.2 11-7.6 5.9-4.5 11.3-8.1 12-8.1 2.8 0 4.8 1.3 5.7 3.8 1.2 3.2-.7 5.3-11.2 12.8-4.2 2.9-8.2 6.1-9 7.1-.8 1 .4.4 2.6-1.3C57 83.1 68.1 76 69.3 76c1.5 0 0 8.5-2.3 13.1-2.9 5.6-12.4 14.4-19 17.7-10.4 5.1-20.4 3.1-23.8-4.8-2.1-4.9-2.8-25.2-1-30.4 1.9-5.7 4.1-6.7 7.6-3.3 3.4 3.2 5.1 3.4 8.5.7 1.4-1.1 4.5-3.2 6.9-4.5 4.7-2.7 4.5-3.4-.3-.9-1.7.8-3.4 1.3-3.7.9-1-.9 3.6-15.3 6.2-19.4 5.9-9.3 17.7-16.1 28-16.1 5.7 0 16.2 3 21.1 6 7.4 4.6 14.3 16.9 14.4 25.6.1 3.7.5 4.3 3.1 5.4 1.7.7 3.7 2.2 4.5 3.3 1.4 2 1.4 1.9 4.6-.7 3.8-3.2 4.9-3 7.2 1.5 1.5 2.9 1.8 5.3 1.5 16.4-.4 14.2-1.6 18-6.5 21.2-4.2 2.8-12.7 2.3-19.3-.9-5.9-2.9-17-12.8-17-15.2 0-.8-.5-1.6-1.1-1.8-.5-.2-1.1-1-1.3-1.8-.1-.8-.9-3.4-1.6-5.8-1-3.2-1-4.6-.2-5.4 1.2-1.2 4.5.6 15.7 9 3.7 2.7 4.7 3.2 2.5 1.2-1.9-1.7-6.6-5.5-10.5-8.4-5.1-3.7-7.1-5.9-7.3-7.8-.4-2.9 2-5.8 4.9-5.8 1 0 6.6 3.6 12.5 8.1 5.8 4.4 10.8 7.8 11 7.6.2-.2-2.8-2.9-6.8-6-4-3-8.6-6.9-10.2-8.6l-2.8-3 3.8-.6c6-1 6.3-1.3 1.3-1.4-3.2-.1-4.9.4-5.2 1.3-.4 1-1.7 1.3-4.4.9-5.1-.7-6.7 1.3-6.9 8.1-.1 2.9-.7 6.9-1.4 9-1.6 5-.2 15.2 3.1 21.7.6 1.3.3 1.8-1.2 2.2-1.6.4-2 1.2-1.7 3.9.2 2.8.7 3.3 2.8 3.3 1.7 0 2.6-.7 3-2.5l.6-2.5 1.2 2.2c.7 1.3 1.9 2.3 2.6 2.3.7 0 2 .8 2.9 1.8.9 1 3.8 2.9 6.4 4.1 2.7 1.3 5.4 3.1 6.1 3.9 1.7 2.2 1.5 12.4-.4 17.1-1.3 3.2-2.3 4.1-5.2 4.9l-3.7 1 4.8.1c2.7.1 6.9-.4 9.4-1 5.5-1.5 5.7-1.3 7.3 9.2l1.2 7.9h14.9c8.2 0 14.9-.1 14.9-.3 0-.1-2.9-8.3-6.4-18.2l-6.3-18 2.5-6.5c2.1-5.4 2.5-8.1 2.4-16.5 0-9.5.2-10.4 3.6-17.5 3-6.2 3.7-8.8 4-15.6.5-9.2-.7-13.9-4.6-18.6-3.3-3.9-11.5-7.8-16.6-7.8-3.4 0-4.5-.8-11-7.3-12.8-13-29.4-19-45.6-16.6zM30 49.2c-1.7 3.5-3.3 7.8-3.6 9.5-.3 1.8-1 3.3-1.4 3.3-1.3 0-4.8 8.1-5.5 12.7-.9 5.7-2.7 7.1-4.9 3.8-4.7-7.1-4.5-20.6.4-27.3 3.2-4.4 10-8.2 14.7-8.2h3.2L30 49.2zm109.9-2.9c6.4 4.3 8.6 8.8 8.6 18.2 0 12.9-4.8 19.5-9.6 13.3-.9-1.1-2.6-6.6-3.7-12-1.2-5.5-3.5-12.9-5.2-16.5l-3-6.6 4.5.5c2.5.3 6.3 1.7 8.4 3.1zM31.4 114.5c3.2.8 6.3 1.8 6.8 2.3 1.4 1.4-3.7 21.5-7.2 28.8-3.3 6.8-6.9 9.9-10.4 9-5.3-1.3-6.1-13.2-2-29 3.6-13.9 3.1-13.4 12.8-11.1zm103.5 5.2c4.3 14.6 5.4 26.4 2.9 31.8-2.8 6.2-9.1 3.5-13.8-6-3.6-7.2-8.6-27.3-7.2-28.7 1-1 10.3-3.5 13.9-3.7 1.9-.1 2.5.9 4.2 6.6z"/><path d="M107 63.5c1.4.8 3 1.4 3.5 1.4.6 0-.1-.6-1.5-1.4-1.4-.8-2.9-1.4-3.5-1.4-.5 0 .1.6 1.5 1.4zM72.4 105.4c-.3.8-.4 2.5-.2 3.8.2 1.7.9 2.3 2.8 2.3 2.2 0 2.5-.4 2.5-3.5 0-2.9-.4-3.6-2.3-3.8-1.3-.2-2.4.3-2.8 1.2zM61.4 122.2c-1.6 2.6 7.9 11.1 14.1 12.7 2.4.6 5 .9 5.7.7.7-.2 2.6-.7 4.1-1.1 3.4-.7 12.7-9.1 12.7-11.4 0-1.4-2.1-1.6-18.1-1.6-9.9 0-18.3.3-18.5.7zM68.5 147.6c5 2.6 8.2 3.6 11.5 3.6 3.3 0 6.5-1 11.5-3.6 3.9-2 6.1-3.4 5-3.2-1.1.3-4.7 1.2-8 2.1-7.4 1.9-9.6 1.9-17 0-3.3-.9-6.9-1.8-8-2.1-1.1-.2 1.1 1.2 5 3.2z"/></svg>